<svg xmlns="http://www.w3.org/2000/svg" width="499" height="347" viewBox="0 0 499 347">
    <defs>
        <linearGradient id="a" x1="50%" x2="50%" y1="0%" y2="100%">
            <stop offset="0%" stop-color="#F8FCFF"/>
            <stop offset="100%" stop-color="#EDF2F6"/>
        </linearGradient>
    </defs>
    <g fill="none" fill-rule="evenodd">
        <g>
            <path fill="#1F5173" fill-rule="nonzero" d="M320.055 0H7.745A7.744 7.744 0 0 0 0 7.744v215.531c0 4.274 3.467 7.737 7.744 7.737h117.441v18.574c0 .275.054.523.081.789h-16.853a7.101 7.101 0 0 0-7.098 7.098 7.104 7.104 0 0 0 7.098 7.102h114.86a7.101 7.101 0 0 0 0-14.2H206.42c.024-.258.084-.514.084-.79v-18.573h113.568c4.273 0 7.744-3.466 7.744-7.737V7.744A7.763 7.763 0 0 0 320.055 0zM305.86 197.428a7.743 7.743 0 0 1-7.742 7.745H29.681a7.744 7.744 0 0 1-7.742-7.745V26.068a7.745 7.745 0 0 1 7.742-7.743H298.12a7.743 7.743 0 0 1 7.742 7.742v171.361z"/>
            <path fill="url(#a)" d="M305.86 197.428a7.743 7.743 0 0 1-7.74 7.745H29.68a7.744 7.744 0 0 1-7.742-7.745V26.068a7.745 7.745 0 0 1 7.742-7.743H298.12a7.743 7.743 0 0 1 7.742 7.742v171.361z"/>
            <path fill="#B0DFFC" d="M392.291 268h-143.51c-6.079 0-10.836-5.023-10.836-10.838V64.189c0-6.08 5.022-11.103 10.836-11.103h143.51c6.079 0 10.836 5.023 10.836 10.838v192.973c.265 6.345-4.757 11.103-10.836 11.103z"/>
            <path fill="url(#a)" d="M381.143 248.307h-122.06c-1.582 0-3.164-1.324-3.164-3.177V75.957c0-1.589 1.319-3.177 3.164-3.177h122.06c1.582 0 3.164 1.323 3.164 3.177V245.13c0 1.588-1.318 3.177-3.164 3.177z"/>
            <ellipse cx="320.969" cy="257.725" fill="#FFF" rx="5.136" ry="5.137"/>
            <path fill="#236999" fill-rule="nonzero" d="M375.674 95.898h111.417c6.616 0 11.909 5.295 11.909 11.915v148.272c0 6.62-5.293 11.915-11.91 11.915H375.675a11.862 11.862 0 0 1-11.909-11.915V107.813c.265-6.62 5.558-11.915 11.91-11.915z"/>
            <path fill="url(#a)" fill-rule="nonzero" d="M384.046 115.591h93.817c1.582 0 3.163 1.32 3.163 3.168v127.236c0 1.584-1.318 3.168-3.163 3.168h-93.817c-1.581 0-3.163-1.32-3.163-3.168v-127.5c0-1.584 1.318-2.904 3.163-2.904z"/>
            <path fill="#FFF" fill-rule="nonzero" d="M436.646 262.006h-11.383c-1.356 0-2.44-1.141-2.44-2.568s1.084-2.569 2.44-2.569h11.383c1.356 0 2.44 1.142 2.44 2.569s-1.084 2.568-2.44 2.568zM335.52 140.422h56.491v122.441H335.52z"/>
            <g fill="#009CFC" fill-rule="nonzero">
                <path d="M396.753 147.41c0-7.381-3.947-11.598-10.788-11.598h-45.256c-1.052 0-2.105 0-3.157.263-5 1.318-7.63 5.272-7.63 11.598v107.015c0 6.59 2.104 10.807 7.893 12.916h51.044c5.263-1.845 7.894-5.535 7.894-11.598V147.41zm-39.204-1.846h11.313c.79 0 1.316.527 1.316 1.318 0 .79-.526 1.318-1.316 1.318H357.55c-.79 0-1.316-.527-1.316-1.318.263-.79.79-1.318 1.316-1.318zm5.788 116.505a4.72 4.72 0 0 1-4.736-4.745 4.72 4.72 0 0 1 4.736-4.745 4.72 4.72 0 0 1 4.736 4.745 4.72 4.72 0 0 1-4.736 4.745zm25.785-16.343h-51.57v-87.773h51.57v87.773z"/>
            </g>
        </g>
        <g fill="#95A0AB" fill-rule="nonzero">
            <path d="M185.347 339.605h-2.705v-9.95c0-3.664-1.298-5.496-3.896-5.496-.601 0-1.154.126-1.66.378a4.204 4.204 0 0 0-1.315 1.024 4.899 4.899 0 0 0-1.173 3.196v10.848h-2.705v-10.596c0-1.437-.313-2.605-.938-3.503-.625-.897-1.55-1.347-2.777-1.347-.625 0-1.203.138-1.731.413a4.404 4.404 0 0 0-1.371 1.114 5.395 5.395 0 0 0-.902 1.58 5.101 5.101 0 0 0-.325 1.78v10.559h-2.704v-12.823c0-.694-.013-1.419-.037-2.173a87.214 87.214 0 0 0-.108-2.353h2.417v2.837h.252c1.226-2.131 3.03-3.197 5.41-3.197 1.155 0 2.159.312 3.013.934.853.623 1.46 1.473 1.82 2.55h.073c.624-1.15 1.424-2.016 2.398-2.603.974-.587 2.085-.88 3.337-.88 1.707 0 3.071.652 4.093 1.957 1.023 1.305 1.533 3.12 1.533 5.442v10.309h.001zm14.07 0l-.252-2.227h-.108c-1.179 1.748-2.934 2.622-5.267 2.622-.745 0-1.431-.12-2.056-.359a4.708 4.708 0 0 1-1.623-1.023 4.836 4.836 0 0 1-1.478-3.539c0-2.108.878-3.706 2.633-4.795 1.755-1.09 4.305-1.635 7.646-1.635v-.395c0-2.849-1.334-4.274-4.004-4.274-1.659 0-3.126.419-4.4 1.257l-.65-1.868c1.539-.981 3.355-1.473 5.447-1.473 4.232 0 6.348 2.31 6.348 6.932v6.647c0 .837.018 1.599.055 2.281.036.683.102 1.3.198 1.85h-2.489v-.001zm-.468-8.98h-.542c-4.665 0-6.997 1.366-6.997 4.095 0 1.078.288 1.88.866 2.407.576.527 1.298.79 2.164.79.553 0 1.1-.095 1.641-.287a4.718 4.718 0 0 0 1.443-.808c.42-.347.764-.772 1.028-1.274a3.571 3.571 0 0 0 .397-1.688v-3.235zm18.793-5.64c-1.058-.575-2.285-.862-3.679-.862-.985 0-1.864.174-2.633.52a5.572 5.572 0 0 0-1.948 1.438 6.513 6.513 0 0 0-1.227 2.173 8.335 8.335 0 0 0-.433 2.73c0 1.005.15 1.928.452 2.766.3.837.721 1.55 1.262 2.137a5.648 5.648 0 0 0 1.93 1.365c.745.324 1.575.485 2.49.485 1.297 0 2.584-.287 3.86-.863l.54 2.083c-1.348.67-2.982 1.006-4.906 1.006-1.275 0-2.428-.21-3.463-.63a7.608 7.608 0 0 1-2.67-1.795 7.928 7.928 0 0 1-1.712-2.784c-.397-1.078-.595-2.287-.595-3.628 0-1.366.222-2.61.666-3.737a8.692 8.692 0 0 1 1.858-2.909 8.324 8.324 0 0 1 2.868-1.903c1.118-.455 2.35-.683 3.697-.683 1.755 0 3.198.312 4.328.934l-.685 2.157zm23.88 2.264c0 1.892-.258 3.616-.776 5.172-.517 1.557-1.25 2.897-2.2 4.023a9.903 9.903 0 0 1-3.427 2.622c-1.335.622-2.82.934-4.454.934-1.564 0-2.994-.305-4.293-.916a9.981 9.981 0 0 1-3.355-2.55c-.938-1.09-1.665-2.384-2.182-3.88-.518-1.495-.775-3.142-.775-4.939 0-1.867.27-3.585.811-5.154.541-1.568 1.293-2.909 2.254-4.023a10.19 10.19 0 0 1 3.445-2.604c1.335-.622 2.796-.934 4.384-.934 1.587 0 3.035.3 4.346.898a9.486 9.486 0 0 1 3.337 2.515c.914 1.078 1.623 2.37 2.128 3.88.504 1.508.757 3.16.757 4.956zm-2.922.144c0-1.437-.192-2.772-.578-4.006-.385-1.232-.92-2.31-1.604-3.232-.686-.922-1.504-1.64-2.453-2.155-.95-.514-2.002-.772-3.156-.772-1.178 0-2.254.258-3.228.772a7.367 7.367 0 0 0-2.49 2.155c-.686.922-1.22 2.024-1.605 3.305-.386 1.281-.577 2.676-.577 4.185 0 1.413.192 2.736.577 3.969.385 1.233.92 2.305 1.605 3.215a7.694 7.694 0 0 0 2.471 2.155c.962.527 2.02.79 3.174.79 1.179 0 2.255-.263 3.23-.79a7.478 7.478 0 0 0 2.488-2.191c.686-.934 1.214-2.03 1.588-3.287.371-1.258.558-2.629.558-4.113zm19.3 5.71c0 1.03-.193 1.971-.578 2.821a6.105 6.105 0 0 1-1.641 2.174c-.709.6-1.568 1.06-2.58 1.383-1.009.324-2.14.485-3.39.485-2.501 0-4.484-.514-5.951-1.545l.756-2.263c1.61 1.006 3.402 1.509 5.375 1.509 1.66 0 2.946-.395 3.86-1.185.915-.79 1.372-1.844 1.372-3.161 0-1.222-.356-2.209-1.065-2.964-.71-.753-1.882-1.442-3.517-2.065-4.16-1.556-6.24-3.832-6.24-6.825 0-.933.186-1.795.559-2.585a6.065 6.065 0 0 1 1.569-2.048c.673-.574 1.472-1.017 2.398-1.329.925-.31 1.93-.466 3.012-.466 2.091 0 3.799.383 5.122 1.15l-.83 2.226c-1.178-.742-2.645-1.113-4.4-1.113-1.395 0-2.526.347-3.39 1.042-.867.694-1.299 1.616-1.299 2.766 0 .55.078 1.041.234 1.473.156.431.415.837.776 1.221.36.384.848.749 1.46 1.095.614.348 1.39.713 2.327 1.095 1.082.432 2.008.893 2.778 1.384.769.491 1.4 1.024 1.894 1.598a5.38 5.38 0 0 1 1.064 1.886c.217.68.325 1.427.325 2.242zM139.346 313.785c2.095-2.771 5.008-2.785 5.008-2.785s.434 2.605-1.648 5.115c-2.223 2.68-4.75 2.242-4.75 2.242s-.474-2.108 1.39-4.572zm-1.123 6.397c1.078 0 3.079-1.487 5.683-1.487 4.483 0 6.246 3.2 6.246 3.2s-3.449 1.77-3.449 6.063c0 4.844 4.297 6.513 4.297 6.513s-3.004 8.482-7.06 8.482c-1.864 0-3.312-1.26-5.276-1.26-2 0-3.986 1.307-5.28 1.307-3.704 0-8.384-8.046-8.384-14.514 0-6.364 3.961-9.702 7.677-9.702 2.416 0 4.29 1.398 5.546 1.398z"/>
        </g>
        <path fill="#95A0AB" fill-rule="nonzero" d="M49 312.133l14.722-2.014v14.178H49m16.495-14.457L85 307v17.178H65.495M49 325.798h14.722v14.218L49 337.962m16.495-11.976H85V343l-19.505-2.753M427.516 337.53v6.773a2.63 2.63 0 0 1-2.627 2.635 2.63 2.63 0 0 1-2.626-2.635v-6.774h-.129c-1.804 0-3.257-1.483-3.257-3.325v-17.125a3.5 3.5 0 0 1 .016-.303h23.846c.009.1.012.2.012.303v17.125c0 1.841-1.453 3.325-3.257 3.325h-.128v6.774a2.63 2.63 0 0 1-2.627 2.635 2.63 2.63 0 0 1-2.626-2.635v-6.774h-6.597zm-12.86-19.23a2.63 2.63 0 0 1 2.627 2.635v11.303a2.63 2.63 0 0 1-2.626 2.635 2.63 2.63 0 0 1-2.627-2.635v-11.303a2.63 2.63 0 0 1 2.627-2.635zm32.316 0a2.63 2.63 0 0 1 2.626 2.635v11.303a2.63 2.63 0 0 1-2.626 2.635 2.63 2.63 0 0 1-2.627-2.635v-11.303a2.63 2.63 0 0 1 2.627-2.635zm-28.002-2.65c.073-5.26 4.65-9.572 10.524-10.14h2.64c5.875.568 10.451 4.881 10.524 10.14H418.97z"/>
        <path stroke="#95A0AB" d="M419.884 305.002l2.77 4.814m19.092-4.814l-2.771 4.814" opacity=".5"/>
        <path fill="#FFF" fill-rule="nonzero" d="M427.286 310.937c.002.735-.605 1.333-1.355 1.335-.75.002-1.36-.593-1.363-1.328v-.007c-.002-.736.605-1.333 1.355-1.335.75-.002 1.36.592 1.363 1.327v.008zm10.143 0c.002.735-.604 1.333-1.355 1.335-.75.002-1.36-.593-1.363-1.328v-.007c-.002-.736.605-1.333 1.355-1.335.75-.002 1.36.592 1.363 1.327v.008z"/>
        <g fill="#95A0AB" fill-rule="nonzero">
            <path d="M312.294 311.783c2.088-2.77 4.991-2.783 4.991-2.783s.432 2.604-1.642 5.113c-2.215 2.679-4.733 2.24-4.733 2.24s-.472-2.106 1.384-4.57zm-1.118 6.395c1.074 0 3.068-1.487 5.663-1.487 4.466 0 6.224 3.2 6.224 3.2s-3.437 1.768-3.437 6.06c0 4.84 4.281 6.51 4.281 6.51s-2.993 8.478-7.035 8.478c-1.857 0-3.3-1.26-5.257-1.26-1.993 0-3.972 1.307-5.26 1.307-3.692 0-8.355-8.043-8.355-14.508 0-6.36 3.947-9.697 7.65-9.697 2.407 0 4.274 1.397 5.526 1.397z"/>
            <path stroke="#95A0AB" d="M335.328 316.953c0 .415-.255.722-.691.722-.364 0-.637-.307-.637-.722 0-.397.291-.722.673-.722.4 0 .655.325.655.722zm-1.007 21.7v-16.599h.686v16.6h-.686zm23.488-11.826c0 8.369-4.68 12.173-9.805 12.173-5.234 0-9.472-4.115-9.472-11.827 0-7.919 4.386-12.173 9.841-12.173 5.345 0 9.436 4.184 9.436 11.827zm-18.583.173c0 6.345 3.099 11.275 8.81 11.275 5.753 0 9.051-5.082 9.051-11.348 0-5.81-2.643-11.113-8.674-11.113-6.032 0-9.187 4.993-9.187 11.186zm21.1 9.855c1.15.761 3.135 1.496 4.842 1.496 3.24 0 6.123-2.25 6.123-5.562 0-3.073-1.92-4.677-5.18-6.054-2.917-1.233-5.54-2.571-5.54-5.857 0-3.423 2.718-5.844 6.411-5.844 1.987 0 3.485.553 4.182 1.037l-.277.597c-.593-.415-2.194-.943-3.935-.943-3.904 0-5.604 2.927-5.604 5.082 0 2.977 2.325 3.972 5.321 5.39 3.485 1.694 5.331 3.188 5.331 6.44 0 3.492-2.508 6.328-6.968 6.328-1.848 0-3.973-.623-5.018-1.418l.311-.692z"/>
        </g>
    </g>
</svg>
